<mxfile host="app.diagrams.net" agent="Mozilla/5.0 (Windows NT 10.0; Win64; x64) AppleWebKit/537.36 (KHTML, like Gecko) Chrome/136.0.0.0 Safari/537.36" version="27.0.6">
  <diagram id="C5RBs43oDa-KdzZeNtuy" name="Page-1">
    <mxGraphModel dx="1869" dy="596" grid="1" gridSize="10" guides="1" tooltips="1" connect="1" arrows="1" fold="1" page="1" pageScale="1" pageWidth="827" pageHeight="1169" math="0" shadow="0">
      <root>
        <mxCell id="WIyWlLk6GJQsqaUBKTNV-0" />
        <mxCell id="WIyWlLk6GJQsqaUBKTNV-1" parent="WIyWlLk6GJQsqaUBKTNV-0" />
        <mxCell id="zkfFHV4jXpPFQw0GAbJ--0" value="User {abstact}" style="swimlane;fontStyle=2;align=center;verticalAlign=top;childLayout=stackLayout;horizontal=1;startSize=26;horizontalStack=0;resizeParent=1;resizeLast=0;collapsible=1;marginBottom=0;rounded=0;shadow=0;strokeWidth=1;strokeColor=#000000;" parent="WIyWlLk6GJQsqaUBKTNV-1" vertex="1">
          <mxGeometry x="-400" y="51" width="160" height="268" as="geometry">
            <mxRectangle x="230" y="140" width="160" height="26" as="alternateBounds" />
          </mxGeometry>
        </mxCell>
        <mxCell id="zkfFHV4jXpPFQw0GAbJ--2" value="- idPersone: Long" style="text;align=left;verticalAlign=top;spacingLeft=4;spacingRight=4;overflow=hidden;rotatable=0;points=[[0,0.5],[1,0.5]];portConstraint=eastwest;rounded=0;shadow=0;html=0;" parent="zkfFHV4jXpPFQw0GAbJ--0" vertex="1">
          <mxGeometry y="26" width="160" height="26" as="geometry" />
        </mxCell>
        <mxCell id="zkfFHV4jXpPFQw0GAbJ--1" value="- lastName: String&#xa;" style="text;align=left;verticalAlign=top;spacingLeft=4;spacingRight=4;overflow=hidden;rotatable=0;points=[[0,0.5],[1,0.5]];portConstraint=eastwest;" parent="zkfFHV4jXpPFQw0GAbJ--0" vertex="1">
          <mxGeometry y="52" width="160" height="26" as="geometry" />
        </mxCell>
        <mxCell id="zkfFHV4jXpPFQw0GAbJ--3" value="- firstName: String" style="text;align=left;verticalAlign=top;spacingLeft=4;spacingRight=4;overflow=hidden;rotatable=0;points=[[0,0.5],[1,0.5]];portConstraint=eastwest;rounded=0;shadow=0;html=0;" parent="zkfFHV4jXpPFQw0GAbJ--0" vertex="1">
          <mxGeometry y="78" width="160" height="26" as="geometry" />
        </mxCell>
        <mxCell id="zkfFHV4jXpPFQw0GAbJ--5" value="- gender: Gender" style="text;align=left;verticalAlign=top;spacingLeft=4;spacingRight=4;overflow=hidden;rotatable=0;points=[[0,0.5],[1,0.5]];portConstraint=eastwest;" parent="zkfFHV4jXpPFQw0GAbJ--0" vertex="1">
          <mxGeometry y="104" width="160" height="26" as="geometry" />
        </mxCell>
        <mxCell id="FPrqy9m5EWMJIwsa5vdO-8" value="- phone: String" style="text;align=left;verticalAlign=top;spacingLeft=4;spacingRight=4;overflow=hidden;rotatable=0;points=[[0,0.5],[1,0.5]];portConstraint=eastwest;" parent="zkfFHV4jXpPFQw0GAbJ--0" vertex="1">
          <mxGeometry y="130" width="160" height="26" as="geometry" />
        </mxCell>
        <mxCell id="FPrqy9m5EWMJIwsa5vdO-9" value="- mail: String" style="text;align=left;verticalAlign=top;spacingLeft=4;spacingRight=4;overflow=hidden;rotatable=0;points=[[0,0.5],[1,0.5]];portConstraint=eastwest;" parent="zkfFHV4jXpPFQw0GAbJ--0" vertex="1">
          <mxGeometry y="156" width="160" height="26" as="geometry" />
        </mxCell>
        <mxCell id="FPrqy9m5EWMJIwsa5vdO-11" value="-Â birthDate: LocalDate" style="text;align=left;verticalAlign=top;spacingLeft=4;spacingRight=4;overflow=hidden;rotatable=0;points=[[0,0.5],[1,0.5]];portConstraint=eastwest;" parent="zkfFHV4jXpPFQw0GAbJ--0" vertex="1">
          <mxGeometry y="182" width="160" height="26" as="geometry" />
        </mxCell>
        <mxCell id="FPrqy9m5EWMJIwsa5vdO-14" value="- role: Role" style="text;align=left;verticalAlign=top;spacingLeft=4;spacingRight=4;overflow=hidden;rotatable=0;points=[[0,0.5],[1,0.5]];portConstraint=eastwest;" parent="zkfFHV4jXpPFQw0GAbJ--0" vertex="1">
          <mxGeometry y="208" width="160" height="26" as="geometry" />
        </mxCell>
        <mxCell id="FPrqy9m5EWMJIwsa5vdO-15" value="" style="line;html=1;strokeWidth=1;align=left;verticalAlign=middle;spacingTop=-1;spacingLeft=3;spacingRight=3;rotatable=0;labelPosition=right;points=[];portConstraint=eastwest;" parent="zkfFHV4jXpPFQw0GAbJ--0" vertex="1">
          <mxGeometry y="234" width="160" height="8" as="geometry" />
        </mxCell>
        <mxCell id="FPrqy9m5EWMJIwsa5vdO-16" value="..." style="text;align=left;verticalAlign=top;spacingLeft=4;spacingRight=4;overflow=hidden;rotatable=0;points=[[0,0.5],[1,0.5]];portConstraint=eastwest;" parent="zkfFHV4jXpPFQw0GAbJ--0" vertex="1">
          <mxGeometry y="242" width="160" height="26" as="geometry" />
        </mxCell>
        <mxCell id="FPrqy9m5EWMJIwsa5vdO-1" value="&lt;&lt;enum&gt;&gt;&#xa;Gender" style="swimlane;fontStyle=0;align=center;verticalAlign=top;childLayout=stackLayout;horizontal=1;startSize=40;horizontalStack=0;resizeParent=1;resizeLast=0;collapsible=1;marginBottom=0;rounded=0;shadow=0;strokeWidth=1;" parent="WIyWlLk6GJQsqaUBKTNV-1" vertex="1">
          <mxGeometry x="-740" y="51" width="140" height="118" as="geometry">
            <mxRectangle x="340" y="380" width="170" height="26" as="alternateBounds" />
          </mxGeometry>
        </mxCell>
        <mxCell id="FPrqy9m5EWMJIwsa5vdO-18" value="MALE" style="text;align=left;verticalAlign=top;spacingLeft=4;spacingRight=4;overflow=hidden;rotatable=0;points=[[0,0.5],[1,0.5]];portConstraint=eastwest;" parent="FPrqy9m5EWMJIwsa5vdO-1" vertex="1">
          <mxGeometry y="40" width="140" height="26" as="geometry" />
        </mxCell>
        <mxCell id="FPrqy9m5EWMJIwsa5vdO-17" value="FEMALE" style="text;align=left;verticalAlign=top;spacingLeft=4;spacingRight=4;overflow=hidden;rotatable=0;points=[[0,0.5],[1,0.5]];portConstraint=eastwest;" parent="FPrqy9m5EWMJIwsa5vdO-1" vertex="1">
          <mxGeometry y="66" width="140" height="26" as="geometry" />
        </mxCell>
        <mxCell id="FPrqy9m5EWMJIwsa5vdO-19" value="OTHER" style="text;align=left;verticalAlign=top;spacingLeft=4;spacingRight=4;overflow=hidden;rotatable=0;points=[[0,0.5],[1,0.5]];portConstraint=eastwest;" parent="FPrqy9m5EWMJIwsa5vdO-1" vertex="1">
          <mxGeometry y="92" width="140" height="26" as="geometry" />
        </mxCell>
        <mxCell id="FPrqy9m5EWMJIwsa5vdO-46" value="LabolatoryTechnician" style="swimlane;fontStyle=0;align=center;verticalAlign=top;childLayout=stackLayout;horizontal=1;startSize=26;horizontalStack=0;resizeParent=1;resizeLast=0;collapsible=1;marginBottom=0;rounded=0;shadow=0;strokeWidth=1;" parent="WIyWlLk6GJQsqaUBKTNV-1" vertex="1">
          <mxGeometry x="-730" y="404" width="160" height="86" as="geometry">
            <mxRectangle x="340" y="380" width="170" height="26" as="alternateBounds" />
          </mxGeometry>
        </mxCell>
        <mxCell id="FPrqy9m5EWMJIwsa5vdO-47" value="- idTechnitian: Long" style="text;align=left;verticalAlign=top;spacingLeft=4;spacingRight=4;overflow=hidden;rotatable=0;points=[[0,0.5],[1,0.5]];portConstraint=eastwest;" parent="FPrqy9m5EWMJIwsa5vdO-46" vertex="1">
          <mxGeometry y="26" width="160" height="26" as="geometry" />
        </mxCell>
        <mxCell id="FPrqy9m5EWMJIwsa5vdO-48" value="" style="line;html=1;strokeWidth=1;align=left;verticalAlign=middle;spacingTop=-1;spacingLeft=3;spacingRight=3;rotatable=0;labelPosition=right;points=[];portConstraint=eastwest;" parent="FPrqy9m5EWMJIwsa5vdO-46" vertex="1">
          <mxGeometry y="52" width="160" height="8" as="geometry" />
        </mxCell>
        <mxCell id="FPrqy9m5EWMJIwsa5vdO-64" value="..." style="text;align=left;verticalAlign=top;spacingLeft=4;spacingRight=4;overflow=hidden;rotatable=0;points=[[0,0.5],[1,0.5]];portConstraint=eastwest;" parent="FPrqy9m5EWMJIwsa5vdO-46" vertex="1">
          <mxGeometry y="60" width="160" height="26" as="geometry" />
        </mxCell>
        <mxCell id="FPrqy9m5EWMJIwsa5vdO-56" value="1" style="text;html=1;align=center;verticalAlign=middle;whiteSpace=wrap;rounded=0;" parent="WIyWlLk6GJQsqaUBKTNV-1" vertex="1">
          <mxGeometry x="-690" y="189" width="30" height="17" as="geometry" />
        </mxCell>
        <mxCell id="FPrqy9m5EWMJIwsa5vdO-59" value="1" style="text;html=1;align=center;verticalAlign=middle;whiteSpace=wrap;rounded=0;" parent="WIyWlLk6GJQsqaUBKTNV-1" vertex="1">
          <mxGeometry x="-600" y="90" width="30" height="30" as="geometry" />
        </mxCell>
        <mxCell id="FPrqy9m5EWMJIwsa5vdO-60" style="edgeStyle=orthogonalEdgeStyle;rounded=0;orthogonalLoop=1;jettySize=auto;html=1;exitX=0.5;exitY=0;exitDx=0;exitDy=0;entryX=0.503;entryY=1.038;entryDx=0;entryDy=0;entryPerimeter=0;endArrow=block;endFill=0;" parent="WIyWlLk6GJQsqaUBKTNV-1" source="FPrqy9m5EWMJIwsa5vdO-46" target="FPrqy9m5EWMJIwsa5vdO-16" edge="1">
          <mxGeometry relative="1" as="geometry" />
        </mxCell>
        <mxCell id="FPrqy9m5EWMJIwsa5vdO-71" style="edgeStyle=orthogonalEdgeStyle;rounded=0;orthogonalLoop=1;jettySize=auto;html=1;exitX=0.5;exitY=0;exitDx=0;exitDy=0;endArrow=block;endFill=0;" parent="WIyWlLk6GJQsqaUBKTNV-1" source="FPrqy9m5EWMJIwsa5vdO-65" edge="1">
          <mxGeometry relative="1" as="geometry">
            <mxPoint x="-310" y="320" as="targetPoint" />
          </mxGeometry>
        </mxCell>
        <mxCell id="FPrqy9m5EWMJIwsa5vdO-90" style="edgeStyle=orthogonalEdgeStyle;rounded=0;orthogonalLoop=1;jettySize=auto;html=1;exitX=0.75;exitY=0;exitDx=0;exitDy=0;entryX=1;entryY=0.5;entryDx=0;entryDy=0;endArrow=open;endFill=0;" parent="WIyWlLk6GJQsqaUBKTNV-1" source="FPrqy9m5EWMJIwsa5vdO-65" target="FPrqy9m5EWMJIwsa5vdO-88" edge="1">
          <mxGeometry relative="1" as="geometry" />
        </mxCell>
        <mxCell id="FPrqy9m5EWMJIwsa5vdO-65" value="Patient" style="swimlane;fontStyle=0;align=center;verticalAlign=top;childLayout=stackLayout;horizontal=1;startSize=26;horizontalStack=0;resizeParent=1;resizeLast=0;collapsible=1;marginBottom=0;rounded=0;shadow=0;strokeWidth=1;" parent="WIyWlLk6GJQsqaUBKTNV-1" vertex="1">
          <mxGeometry x="-170" y="517" width="160" height="190" as="geometry">
            <mxRectangle x="130" y="380" width="160" height="26" as="alternateBounds" />
          </mxGeometry>
        </mxCell>
        <mxCell id="FPrqy9m5EWMJIwsa5vdO-66" value="- idPatient: Long" style="text;align=left;verticalAlign=top;spacingLeft=4;spacingRight=4;overflow=hidden;rotatable=0;points=[[0,0.5],[1,0.5]];portConstraint=eastwest;" parent="FPrqy9m5EWMJIwsa5vdO-65" vertex="1">
          <mxGeometry y="26" width="160" height="26" as="geometry" />
        </mxCell>
        <mxCell id="FPrqy9m5EWMJIwsa5vdO-67" value="- isurance: Insurance" style="text;align=left;verticalAlign=top;spacingLeft=4;spacingRight=4;overflow=hidden;rotatable=0;points=[[0,0.5],[1,0.5]];portConstraint=eastwest;rounded=0;shadow=0;html=0;" parent="FPrqy9m5EWMJIwsa5vdO-65" vertex="1">
          <mxGeometry y="52" width="160" height="26" as="geometry" />
        </mxCell>
        <mxCell id="FPrqy9m5EWMJIwsa5vdO-70" value="- adrdress: String" style="text;align=left;verticalAlign=top;spacingLeft=4;spacingRight=4;overflow=hidden;rotatable=0;points=[[0,0.5],[1,0.5]];portConstraint=eastwest;" parent="FPrqy9m5EWMJIwsa5vdO-65" vertex="1">
          <mxGeometry y="78" width="160" height="26" as="geometry" />
        </mxCell>
        <mxCell id="FPrqy9m5EWMJIwsa5vdO-76" value="- doctor: Doktor" style="text;align=left;verticalAlign=top;spacingLeft=4;spacingRight=4;overflow=hidden;rotatable=0;points=[[0,0.5],[1,0.5]];portConstraint=eastwest;" parent="FPrqy9m5EWMJIwsa5vdO-65" vertex="1">
          <mxGeometry y="104" width="160" height="26" as="geometry" />
        </mxCell>
        <mxCell id="FPrqy9m5EWMJIwsa5vdO-84" value="- tests: Test [*]" style="text;align=left;verticalAlign=top;spacingLeft=4;spacingRight=4;overflow=hidden;rotatable=0;points=[[0,0.5],[1,0.5]];portConstraint=eastwest;" parent="FPrqy9m5EWMJIwsa5vdO-65" vertex="1">
          <mxGeometry y="130" width="160" height="22" as="geometry" />
        </mxCell>
        <mxCell id="FPrqy9m5EWMJIwsa5vdO-77" value="" style="line;html=1;strokeWidth=1;align=left;verticalAlign=middle;spacingTop=-1;spacingLeft=3;spacingRight=3;rotatable=0;labelPosition=right;points=[];portConstraint=eastwest;" parent="FPrqy9m5EWMJIwsa5vdO-65" vertex="1">
          <mxGeometry y="152" width="160" height="8" as="geometry" />
        </mxCell>
        <mxCell id="7z45aVooxAqQ6ZpwQJSf-15" value="..." style="text;align=left;verticalAlign=top;spacingLeft=4;spacingRight=4;overflow=hidden;rotatable=0;points=[[0,0.5],[1,0.5]];portConstraint=eastwest;" vertex="1" parent="FPrqy9m5EWMJIwsa5vdO-65">
          <mxGeometry y="160" width="160" height="22" as="geometry" />
        </mxCell>
        <mxCell id="FPrqy9m5EWMJIwsa5vdO-85" value="&lt;&lt;enum&gt;&gt;&#xa;Insurance" style="swimlane;fontStyle=0;align=center;verticalAlign=top;childLayout=stackLayout;horizontal=1;startSize=40;horizontalStack=0;resizeParent=1;resizeLast=0;collapsible=1;marginBottom=0;rounded=0;shadow=0;strokeWidth=1;" parent="WIyWlLk6GJQsqaUBKTNV-1" vertex="1">
          <mxGeometry x="-180" y="189" width="140" height="198" as="geometry">
            <mxRectangle x="340" y="380" width="170" height="26" as="alternateBounds" />
          </mxGeometry>
        </mxCell>
        <mxCell id="FPrqy9m5EWMJIwsa5vdO-86" value="CSSÂ Â Â Â " style="text;align=left;verticalAlign=top;spacingLeft=4;spacingRight=4;overflow=hidden;rotatable=0;points=[[0,0.5],[1,0.5]];portConstraint=eastwest;" parent="FPrqy9m5EWMJIwsa5vdO-85" vertex="1">
          <mxGeometry y="40" width="140" height="26" as="geometry" />
        </mxCell>
        <mxCell id="FPrqy9m5EWMJIwsa5vdO-87" value="KRT" style="text;align=left;verticalAlign=top;spacingLeft=4;spacingRight=4;overflow=hidden;rotatable=0;points=[[0,0.5],[1,0.5]];portConstraint=eastwest;" parent="FPrqy9m5EWMJIwsa5vdO-85" vertex="1">
          <mxGeometry y="66" width="140" height="26" as="geometry" />
        </mxCell>
        <mxCell id="FPrqy9m5EWMJIwsa5vdO-88" value="VISANA" style="text;align=left;verticalAlign=top;spacingLeft=4;spacingRight=4;overflow=hidden;rotatable=0;points=[[0,0.5],[1,0.5]];portConstraint=eastwest;" parent="FPrqy9m5EWMJIwsa5vdO-85" vertex="1">
          <mxGeometry y="92" width="140" height="26" as="geometry" />
        </mxCell>
        <mxCell id="FPrqy9m5EWMJIwsa5vdO-92" value="CONCORDIA" style="text;align=left;verticalAlign=top;spacingLeft=4;spacingRight=4;overflow=hidden;rotatable=0;points=[[0,0.5],[1,0.5]];portConstraint=eastwest;" parent="FPrqy9m5EWMJIwsa5vdO-85" vertex="1">
          <mxGeometry y="118" width="140" height="26" as="geometry" />
        </mxCell>
        <mxCell id="FPrqy9m5EWMJIwsa5vdO-93" value="SANITAS" style="text;align=left;verticalAlign=top;spacingLeft=4;spacingRight=4;overflow=hidden;rotatable=0;points=[[0,0.5],[1,0.5]];portConstraint=eastwest;" parent="FPrqy9m5EWMJIwsa5vdO-85" vertex="1">
          <mxGeometry y="144" width="140" height="26" as="geometry" />
        </mxCell>
        <mxCell id="FPrqy9m5EWMJIwsa5vdO-94" value="HELSANA" style="text;align=left;verticalAlign=top;spacingLeft=4;spacingRight=4;overflow=hidden;rotatable=0;points=[[0,0.5],[1,0.5]];portConstraint=eastwest;" parent="FPrqy9m5EWMJIwsa5vdO-85" vertex="1">
          <mxGeometry y="170" width="140" height="26" as="geometry" />
        </mxCell>
        <mxCell id="FPrqy9m5EWMJIwsa5vdO-107" style="edgeStyle=orthogonalEdgeStyle;rounded=0;orthogonalLoop=1;jettySize=auto;html=1;exitX=0.5;exitY=0;exitDx=0;exitDy=0;endArrow=block;endFill=0;" parent="WIyWlLk6GJQsqaUBKTNV-1" source="FPrqy9m5EWMJIwsa5vdO-99" edge="1">
          <mxGeometry relative="1" as="geometry">
            <mxPoint x="-340" y="320" as="targetPoint" />
          </mxGeometry>
        </mxCell>
        <mxCell id="FPrqy9m5EWMJIwsa5vdO-99" value="Doctor" style="swimlane;fontStyle=0;align=center;verticalAlign=top;childLayout=stackLayout;horizontal=1;startSize=26;horizontalStack=0;resizeParent=1;resizeLast=0;collapsible=1;marginBottom=0;rounded=0;shadow=0;strokeWidth=1;" parent="WIyWlLk6GJQsqaUBKTNV-1" vertex="1">
          <mxGeometry x="-503" y="377" width="180" height="113" as="geometry">
            <mxRectangle x="130" y="380" width="160" height="26" as="alternateBounds" />
          </mxGeometry>
        </mxCell>
        <mxCell id="FPrqy9m5EWMJIwsa5vdO-100" value="-Â idDoctor: Long" style="text;align=left;verticalAlign=top;spacingLeft=4;spacingRight=4;overflow=hidden;rotatable=0;points=[[0,0.5],[1,0.5]];portConstraint=eastwest;" parent="FPrqy9m5EWMJIwsa5vdO-99" vertex="1">
          <mxGeometry y="26" width="180" height="26" as="geometry" />
        </mxCell>
        <mxCell id="FPrqy9m5EWMJIwsa5vdO-101" value="- specialisation:Spetialisation" style="text;align=left;verticalAlign=top;spacingLeft=4;spacingRight=4;overflow=hidden;rotatable=0;points=[[0,0.5],[1,0.5]];portConstraint=eastwest;rounded=0;shadow=0;html=0;" parent="FPrqy9m5EWMJIwsa5vdO-99" vertex="1">
          <mxGeometry y="52" width="180" height="26" as="geometry" />
        </mxCell>
        <mxCell id="FPrqy9m5EWMJIwsa5vdO-104" value="" style="line;html=1;strokeWidth=1;align=left;verticalAlign=middle;spacingTop=-1;spacingLeft=3;spacingRight=3;rotatable=0;labelPosition=right;points=[];portConstraint=eastwest;" parent="FPrqy9m5EWMJIwsa5vdO-99" vertex="1">
          <mxGeometry y="78" width="180" height="8" as="geometry" />
        </mxCell>
        <mxCell id="FPrqy9m5EWMJIwsa5vdO-105" value="..." style="text;align=left;verticalAlign=top;spacingLeft=4;spacingRight=4;overflow=hidden;rotatable=0;points=[[0,0.5],[1,0.5]];portConstraint=eastwest;" parent="FPrqy9m5EWMJIwsa5vdO-99" vertex="1">
          <mxGeometry y="86" width="180" height="26" as="geometry" />
        </mxCell>
        <mxCell id="FPrqy9m5EWMJIwsa5vdO-115" value="&lt;&lt;enum&gt;&gt;&#xa;Role" style="swimlane;fontStyle=0;align=center;verticalAlign=top;childLayout=stackLayout;horizontal=1;startSize=40;horizontalStack=0;resizeParent=1;resizeLast=0;collapsible=1;marginBottom=0;rounded=0;shadow=0;strokeWidth=1;" parent="WIyWlLk6GJQsqaUBKTNV-1" vertex="1">
          <mxGeometry x="-760" y="210" width="190" height="120" as="geometry">
            <mxRectangle x="340" y="380" width="170" height="26" as="alternateBounds" />
          </mxGeometry>
        </mxCell>
        <mxCell id="FPrqy9m5EWMJIwsa5vdO-116" value="DOKTOR" style="text;align=left;verticalAlign=top;spacingLeft=4;spacingRight=4;overflow=hidden;rotatable=0;points=[[0,0.5],[1,0.5]];portConstraint=eastwest;" parent="FPrqy9m5EWMJIwsa5vdO-115" vertex="1">
          <mxGeometry y="40" width="190" height="26" as="geometry" />
        </mxCell>
        <mxCell id="FPrqy9m5EWMJIwsa5vdO-117" value="LABORATORY_TECHNICIAN" style="text;align=left;verticalAlign=top;spacingLeft=4;spacingRight=4;overflow=hidden;rotatable=0;points=[[0,0.5],[1,0.5]];portConstraint=eastwest;" parent="FPrqy9m5EWMJIwsa5vdO-115" vertex="1">
          <mxGeometry y="66" width="190" height="26" as="geometry" />
        </mxCell>
        <mxCell id="FPrqy9m5EWMJIwsa5vdO-118" value="PATIENT" style="text;align=left;verticalAlign=top;spacingLeft=4;spacingRight=4;overflow=hidden;rotatable=0;points=[[0,0.5],[1,0.5]];portConstraint=eastwest;" parent="FPrqy9m5EWMJIwsa5vdO-115" vertex="1">
          <mxGeometry y="92" width="190" height="28" as="geometry" />
        </mxCell>
        <mxCell id="FPrqy9m5EWMJIwsa5vdO-119" value="&lt;&lt;enum&gt;&gt;&#xa;Spetialisation" style="swimlane;fontStyle=0;align=center;verticalAlign=top;childLayout=stackLayout;horizontal=1;startSize=40;horizontalStack=0;resizeParent=1;resizeLast=0;collapsible=1;marginBottom=0;rounded=0;shadow=0;strokeWidth=1;" parent="WIyWlLk6GJQsqaUBKTNV-1" vertex="1">
          <mxGeometry x="-750" y="660" width="190" height="220" as="geometry">
            <mxRectangle x="340" y="380" width="170" height="26" as="alternateBounds" />
          </mxGeometry>
        </mxCell>
        <mxCell id="FPrqy9m5EWMJIwsa5vdO-121" value="CARDIOLOGIST" style="text;align=left;verticalAlign=top;spacingLeft=4;spacingRight=4;overflow=hidden;rotatable=0;points=[[0,0.5],[1,0.5]];portConstraint=eastwest;" parent="FPrqy9m5EWMJIwsa5vdO-119" vertex="1">
          <mxGeometry y="40" width="190" height="24" as="geometry" />
        </mxCell>
        <mxCell id="FPrqy9m5EWMJIwsa5vdO-128" value="GENERAL_PRACTITIONER" style="text;align=left;verticalAlign=top;spacingLeft=4;spacingRight=4;overflow=hidden;rotatable=0;points=[[0,0.5],[1,0.5]];portConstraint=eastwest;" parent="FPrqy9m5EWMJIwsa5vdO-119" vertex="1">
          <mxGeometry y="64" width="190" height="24" as="geometry" />
        </mxCell>
        <mxCell id="FPrqy9m5EWMJIwsa5vdO-129" value="NEUROLOGIST" style="text;align=left;verticalAlign=top;spacingLeft=4;spacingRight=4;overflow=hidden;rotatable=0;points=[[0,0.5],[1,0.5]];portConstraint=eastwest;" parent="FPrqy9m5EWMJIwsa5vdO-119" vertex="1">
          <mxGeometry y="88" width="190" height="22" as="geometry" />
        </mxCell>
        <mxCell id="FPrqy9m5EWMJIwsa5vdO-130" value="GYNECOLOGIST" style="text;align=left;verticalAlign=top;spacingLeft=4;spacingRight=4;overflow=hidden;rotatable=0;points=[[0,0.5],[1,0.5]];portConstraint=eastwest;" parent="FPrqy9m5EWMJIwsa5vdO-119" vertex="1">
          <mxGeometry y="110" width="190" height="26" as="geometry" />
        </mxCell>
        <mxCell id="FPrqy9m5EWMJIwsa5vdO-132" value="DERMATOLOGIST" style="text;align=left;verticalAlign=top;spacingLeft=4;spacingRight=4;overflow=hidden;rotatable=0;points=[[0,0.5],[1,0.5]];portConstraint=eastwest;" parent="FPrqy9m5EWMJIwsa5vdO-119" vertex="1">
          <mxGeometry y="136" width="190" height="26" as="geometry" />
        </mxCell>
        <mxCell id="FPrqy9m5EWMJIwsa5vdO-133" value="ONCOLOGIST" style="text;align=left;verticalAlign=top;spacingLeft=4;spacingRight=4;overflow=hidden;rotatable=0;points=[[0,0.5],[1,0.5]];portConstraint=eastwest;" parent="FPrqy9m5EWMJIwsa5vdO-119" vertex="1">
          <mxGeometry y="162" width="190" height="24" as="geometry" />
        </mxCell>
        <mxCell id="FPrqy9m5EWMJIwsa5vdO-135" value="GASTROENTEROLOGIST" style="text;align=left;verticalAlign=top;spacingLeft=4;spacingRight=4;overflow=hidden;rotatable=0;points=[[0,0.5],[1,0.5]];portConstraint=eastwest;" parent="FPrqy9m5EWMJIwsa5vdO-119" vertex="1">
          <mxGeometry y="186" width="190" height="30" as="geometry" />
        </mxCell>
        <mxCell id="FPrqy9m5EWMJIwsa5vdO-180" value="Test {abstract}" style="swimlane;fontStyle=2;align=center;verticalAlign=top;childLayout=stackLayout;horizontal=1;startSize=26;horizontalStack=0;resizeParent=1;resizeLast=0;collapsible=1;marginBottom=0;rounded=0;shadow=0;strokeWidth=1;strokeColor=#000000;" parent="WIyWlLk6GJQsqaUBKTNV-1" vertex="1">
          <mxGeometry x="-540" y="550" width="250" height="190" as="geometry">
            <mxRectangle x="230" y="140" width="160" height="26" as="alternateBounds" />
          </mxGeometry>
        </mxCell>
        <mxCell id="FPrqy9m5EWMJIwsa5vdO-181" value="- idTest: Long" style="text;align=left;verticalAlign=top;spacingLeft=4;spacingRight=4;overflow=hidden;rotatable=0;points=[[0,0.5],[1,0.5]];portConstraint=eastwest;rounded=0;shadow=0;html=0;" parent="FPrqy9m5EWMJIwsa5vdO-180" vertex="1">
          <mxGeometry y="26" width="250" height="26" as="geometry" />
        </mxCell>
        <mxCell id="FPrqy9m5EWMJIwsa5vdO-182" value="- date: LocalDate&#xa;" style="text;align=left;verticalAlign=top;spacingLeft=4;spacingRight=4;overflow=hidden;rotatable=0;points=[[0,0.5],[1,0.5]];portConstraint=eastwest;" parent="FPrqy9m5EWMJIwsa5vdO-180" vertex="1">
          <mxGeometry y="52" width="250" height="26" as="geometry" />
        </mxCell>
        <mxCell id="FPrqy9m5EWMJIwsa5vdO-183" value="- testType: String" style="text;align=left;verticalAlign=top;spacingLeft=4;spacingRight=4;overflow=hidden;rotatable=0;points=[[0,0.5],[1,0.5]];portConstraint=eastwest;rounded=0;shadow=0;html=0;" parent="FPrqy9m5EWMJIwsa5vdO-180" vertex="1">
          <mxGeometry y="78" width="250" height="26" as="geometry" />
        </mxCell>
        <mxCell id="FPrqy9m5EWMJIwsa5vdO-184" value="- patient: Patient" style="text;align=left;verticalAlign=top;spacingLeft=4;spacingRight=4;overflow=hidden;rotatable=0;points=[[0,0.5],[1,0.5]];portConstraint=eastwest;" parent="FPrqy9m5EWMJIwsa5vdO-180" vertex="1">
          <mxGeometry y="104" width="250" height="26" as="geometry" />
        </mxCell>
        <mxCell id="FPrqy9m5EWMJIwsa5vdO-186" value="- labolatoryTechnician: LabolatoryTechnician" style="text;align=left;verticalAlign=top;spacingLeft=4;spacingRight=4;overflow=hidden;rotatable=0;points=[[0,0.5],[1,0.5]];portConstraint=eastwest;" parent="FPrqy9m5EWMJIwsa5vdO-180" vertex="1">
          <mxGeometry y="130" width="250" height="26" as="geometry" />
        </mxCell>
        <mxCell id="FPrqy9m5EWMJIwsa5vdO-189" value="" style="line;html=1;strokeWidth=1;align=left;verticalAlign=middle;spacingTop=-1;spacingLeft=3;spacingRight=3;rotatable=0;labelPosition=right;points=[];portConstraint=eastwest;" parent="FPrqy9m5EWMJIwsa5vdO-180" vertex="1">
          <mxGeometry y="156" width="250" height="8" as="geometry" />
        </mxCell>
        <mxCell id="FPrqy9m5EWMJIwsa5vdO-190" value="..." style="text;align=left;verticalAlign=top;spacingLeft=4;spacingRight=4;overflow=hidden;rotatable=0;points=[[0,0.5],[1,0.5]];portConstraint=eastwest;" parent="FPrqy9m5EWMJIwsa5vdO-180" vertex="1">
          <mxGeometry y="164" width="250" height="20" as="geometry" />
        </mxCell>
        <mxCell id="FPrqy9m5EWMJIwsa5vdO-191" value="CompleteBloodCountTest" style="swimlane;fontStyle=2;align=center;verticalAlign=top;childLayout=stackLayout;horizontal=1;startSize=26;horizontalStack=0;resizeParent=1;resizeLast=0;collapsible=1;marginBottom=0;rounded=0;shadow=0;strokeWidth=1;strokeColor=#000000;" parent="WIyWlLk6GJQsqaUBKTNV-1" vertex="1">
          <mxGeometry x="-220" y="760" width="200" height="400" as="geometry">
            <mxRectangle x="230" y="140" width="160" height="26" as="alternateBounds" />
          </mxGeometry>
        </mxCell>
        <mxCell id="FPrqy9m5EWMJIwsa5vdO-192" value="-Â redBloodCells:Â Integer" style="text;align=left;verticalAlign=top;spacingLeft=4;spacingRight=4;overflow=hidden;rotatable=0;points=[[0,0.5],[1,0.5]];portConstraint=eastwest;rounded=0;shadow=0;html=0;" parent="FPrqy9m5EWMJIwsa5vdO-191" vertex="1">
          <mxGeometry y="26" width="200" height="26" as="geometry" />
        </mxCell>
        <mxCell id="FPrqy9m5EWMJIwsa5vdO-193" value="-Â whiteBloodCells:Â Integer&#xa;" style="text;align=left;verticalAlign=top;spacingLeft=4;spacingRight=4;overflow=hidden;rotatable=0;points=[[0,0.5],[1,0.5]];portConstraint=eastwest;" parent="FPrqy9m5EWMJIwsa5vdO-191" vertex="1">
          <mxGeometry y="52" width="200" height="26" as="geometry" />
        </mxCell>
        <mxCell id="FPrqy9m5EWMJIwsa5vdO-194" value="-Â hemoglobin:Â Integer" style="text;align=left;verticalAlign=top;spacingLeft=4;spacingRight=4;overflow=hidden;rotatable=0;points=[[0,0.5],[1,0.5]];portConstraint=eastwest;rounded=0;shadow=0;html=0;" parent="FPrqy9m5EWMJIwsa5vdO-191" vertex="1">
          <mxGeometry y="78" width="200" height="26" as="geometry" />
        </mxCell>
        <mxCell id="FPrqy9m5EWMJIwsa5vdO-195" value="-Â hematocrit:Â Integer" style="text;align=left;verticalAlign=top;spacingLeft=4;spacingRight=4;overflow=hidden;rotatable=0;points=[[0,0.5],[1,0.5]];portConstraint=eastwest;" parent="FPrqy9m5EWMJIwsa5vdO-191" vertex="1">
          <mxGeometry y="104" width="200" height="26" as="geometry" />
        </mxCell>
        <mxCell id="FPrqy9m5EWMJIwsa5vdO-196" value="-Â platelets:Â Integer" style="text;align=left;verticalAlign=top;spacingLeft=4;spacingRight=4;overflow=hidden;rotatable=0;points=[[0,0.5],[1,0.5]];portConstraint=eastwest;" parent="FPrqy9m5EWMJIwsa5vdO-191" vertex="1">
          <mxGeometry y="130" width="200" height="26" as="geometry" />
        </mxCell>
        <mxCell id="FPrqy9m5EWMJIwsa5vdO-197" value="- mcv:Â Double" style="text;align=left;verticalAlign=top;spacingLeft=4;spacingRight=4;overflow=hidden;rotatable=0;points=[[0,0.5],[1,0.5]];portConstraint=eastwest;" parent="FPrqy9m5EWMJIwsa5vdO-191" vertex="1">
          <mxGeometry y="156" width="200" height="26" as="geometry" />
        </mxCell>
        <mxCell id="FPrqy9m5EWMJIwsa5vdO-198" value="- mch:Â Double" style="text;align=left;verticalAlign=top;spacingLeft=4;spacingRight=4;overflow=hidden;rotatable=0;points=[[0,0.5],[1,0.5]];portConstraint=eastwest;" parent="FPrqy9m5EWMJIwsa5vdO-191" vertex="1">
          <mxGeometry y="182" width="200" height="26" as="geometry" />
        </mxCell>
        <mxCell id="FPrqy9m5EWMJIwsa5vdO-199" value="-Â mchc:Â Double" style="text;align=left;verticalAlign=top;spacingLeft=4;spacingRight=4;overflow=hidden;rotatable=0;points=[[0,0.5],[1,0.5]];portConstraint=eastwest;" parent="FPrqy9m5EWMJIwsa5vdO-191" vertex="1">
          <mxGeometry y="208" width="200" height="26" as="geometry" />
        </mxCell>
        <mxCell id="FPrqy9m5EWMJIwsa5vdO-206" value="-Â neutrophils:Â Integer&#xa;" style="text;align=left;verticalAlign=top;spacingLeft=4;spacingRight=4;overflow=hidden;rotatable=0;points=[[0,0.5],[1,0.5]];portConstraint=eastwest;" parent="FPrqy9m5EWMJIwsa5vdO-191" vertex="1">
          <mxGeometry y="234" width="200" height="26" as="geometry" />
        </mxCell>
        <mxCell id="FPrqy9m5EWMJIwsa5vdO-207" value="-Â lymphocytes:Â Integer&#xa;" style="text;align=left;verticalAlign=top;spacingLeft=4;spacingRight=4;overflow=hidden;rotatable=0;points=[[0,0.5],[1,0.5]];portConstraint=eastwest;" parent="FPrqy9m5EWMJIwsa5vdO-191" vertex="1">
          <mxGeometry y="260" width="200" height="26" as="geometry" />
        </mxCell>
        <mxCell id="FPrqy9m5EWMJIwsa5vdO-208" value="-Â monocytes:Â Integer&#xa;" style="text;align=left;verticalAlign=top;spacingLeft=4;spacingRight=4;overflow=hidden;rotatable=0;points=[[0,0.5],[1,0.5]];portConstraint=eastwest;" parent="FPrqy9m5EWMJIwsa5vdO-191" vertex="1">
          <mxGeometry y="286" width="200" height="26" as="geometry" />
        </mxCell>
        <mxCell id="FPrqy9m5EWMJIwsa5vdO-209" value="-Â eosinophils:Â Integer&#xa;" style="text;align=left;verticalAlign=top;spacingLeft=4;spacingRight=4;overflow=hidden;rotatable=0;points=[[0,0.5],[1,0.5]];portConstraint=eastwest;" parent="FPrqy9m5EWMJIwsa5vdO-191" vertex="1">
          <mxGeometry y="312" width="200" height="26" as="geometry" />
        </mxCell>
        <mxCell id="FPrqy9m5EWMJIwsa5vdO-210" value="-Â basophils:Â Integer&#xa;" style="text;align=left;verticalAlign=top;spacingLeft=4;spacingRight=4;overflow=hidden;rotatable=0;points=[[0,0.5],[1,0.5]];portConstraint=eastwest;" parent="FPrqy9m5EWMJIwsa5vdO-191" vertex="1">
          <mxGeometry y="338" width="200" height="26" as="geometry" />
        </mxCell>
        <mxCell id="FPrqy9m5EWMJIwsa5vdO-200" value="" style="line;html=1;strokeWidth=1;align=left;verticalAlign=middle;spacingTop=-1;spacingLeft=3;spacingRight=3;rotatable=0;labelPosition=right;points=[];portConstraint=eastwest;" parent="FPrqy9m5EWMJIwsa5vdO-191" vertex="1">
          <mxGeometry y="364" width="200" height="16" as="geometry" />
        </mxCell>
        <mxCell id="FPrqy9m5EWMJIwsa5vdO-201" value="..." style="text;align=left;verticalAlign=top;spacingLeft=4;spacingRight=4;overflow=hidden;rotatable=0;points=[[0,0.5],[1,0.5]];portConstraint=eastwest;" parent="FPrqy9m5EWMJIwsa5vdO-191" vertex="1">
          <mxGeometry y="380" width="200" height="20" as="geometry" />
        </mxCell>
        <mxCell id="FPrqy9m5EWMJIwsa5vdO-212" value="1" style="text;html=1;align=center;verticalAlign=middle;whiteSpace=wrap;rounded=0;" parent="WIyWlLk6GJQsqaUBKTNV-1" vertex="1">
          <mxGeometry x="-650" y="646" width="25" height="14" as="geometry" />
        </mxCell>
        <mxCell id="FPrqy9m5EWMJIwsa5vdO-213" value="1" style="text;html=1;align=center;verticalAlign=middle;whiteSpace=wrap;rounded=0;" parent="WIyWlLk6GJQsqaUBKTNV-1" vertex="1">
          <mxGeometry x="-290" y="573.5" width="20" height="17" as="geometry" />
        </mxCell>
        <mxCell id="FPrqy9m5EWMJIwsa5vdO-214" value="0..*" style="text;html=1;align=center;verticalAlign=middle;whiteSpace=wrap;rounded=0;" parent="WIyWlLk6GJQsqaUBKTNV-1" vertex="1">
          <mxGeometry x="-305" y="500" width="30" height="30" as="geometry" />
        </mxCell>
        <mxCell id="FPrqy9m5EWMJIwsa5vdO-215" value="1" style="text;html=1;align=center;verticalAlign=middle;whiteSpace=wrap;rounded=0;" parent="WIyWlLk6GJQsqaUBKTNV-1" vertex="1">
          <mxGeometry x="-40" y="257" width="30" height="30" as="geometry" />
        </mxCell>
        <mxCell id="FPrqy9m5EWMJIwsa5vdO-217" value="1" style="text;html=1;align=center;verticalAlign=middle;whiteSpace=wrap;rounded=0;" parent="WIyWlLk6GJQsqaUBKTNV-1" vertex="1">
          <mxGeometry x="-320" y="420" width="20" height="20" as="geometry" />
        </mxCell>
        <mxCell id="FPrqy9m5EWMJIwsa5vdO-218" value="0...*" style="text;html=1;align=center;verticalAlign=middle;whiteSpace=wrap;rounded=0;" parent="WIyWlLk6GJQsqaUBKTNV-1" vertex="1">
          <mxGeometry x="-160" y="497" width="30" height="20" as="geometry" />
        </mxCell>
        <mxCell id="FPrqy9m5EWMJIwsa5vdO-219" style="edgeStyle=orthogonalEdgeStyle;rounded=0;orthogonalLoop=1;jettySize=auto;html=1;exitX=0;exitY=0.5;exitDx=0;exitDy=0;entryX=1.002;entryY=0.1;entryDx=0;entryDy=0;entryPerimeter=0;endArrow=block;endFill=0;" parent="WIyWlLk6GJQsqaUBKTNV-1" source="FPrqy9m5EWMJIwsa5vdO-194" target="FPrqy9m5EWMJIwsa5vdO-183" edge="1">
          <mxGeometry relative="1" as="geometry" />
        </mxCell>
        <mxCell id="FPrqy9m5EWMJIwsa5vdO-220" value="CompleteBloodCountTest" style="swimlane;fontStyle=2;align=center;verticalAlign=top;childLayout=stackLayout;horizontal=1;startSize=26;horizontalStack=0;resizeParent=1;resizeLast=0;collapsible=1;marginBottom=0;rounded=0;shadow=0;strokeWidth=1;strokeColor=#000000;" parent="WIyWlLk6GJQsqaUBKTNV-1" vertex="1">
          <mxGeometry x="-500" y="870" width="200" height="402" as="geometry">
            <mxRectangle x="230" y="140" width="160" height="26" as="alternateBounds" />
          </mxGeometry>
        </mxCell>
        <mxCell id="FPrqy9m5EWMJIwsa5vdO-221" value="-Â color:Â String" style="text;align=left;verticalAlign=top;spacingLeft=4;spacingRight=4;overflow=hidden;rotatable=0;points=[[0,0.5],[1,0.5]];portConstraint=eastwest;rounded=0;shadow=0;html=0;" parent="FPrqy9m5EWMJIwsa5vdO-220" vertex="1">
          <mxGeometry y="26" width="200" height="26" as="geometry" />
        </mxCell>
        <mxCell id="FPrqy9m5EWMJIwsa5vdO-222" value="-Â clarity:Â String&#xa;" style="text;align=left;verticalAlign=top;spacingLeft=4;spacingRight=4;overflow=hidden;rotatable=0;points=[[0,0.5],[1,0.5]];portConstraint=eastwest;" parent="FPrqy9m5EWMJIwsa5vdO-220" vertex="1">
          <mxGeometry y="52" width="200" height="28" as="geometry" />
        </mxCell>
        <mxCell id="FPrqy9m5EWMJIwsa5vdO-223" value="-Â specificGravity:Â Double" style="text;align=left;verticalAlign=top;spacingLeft=4;spacingRight=4;overflow=hidden;rotatable=0;points=[[0,0.5],[1,0.5]];portConstraint=eastwest;rounded=0;shadow=0;html=0;" parent="FPrqy9m5EWMJIwsa5vdO-220" vertex="1">
          <mxGeometry y="80" width="200" height="26" as="geometry" />
        </mxCell>
        <mxCell id="FPrqy9m5EWMJIwsa5vdO-224" value="-Â ph:Â Double" style="text;align=left;verticalAlign=top;spacingLeft=4;spacingRight=4;overflow=hidden;rotatable=0;points=[[0,0.5],[1,0.5]];portConstraint=eastwest;" parent="FPrqy9m5EWMJIwsa5vdO-220" vertex="1">
          <mxGeometry y="106" width="200" height="26" as="geometry" />
        </mxCell>
        <mxCell id="FPrqy9m5EWMJIwsa5vdO-225" value="-Â protein:Â Boolean" style="text;align=left;verticalAlign=top;spacingLeft=4;spacingRight=4;overflow=hidden;rotatable=0;points=[[0,0.5],[1,0.5]];portConstraint=eastwest;" parent="FPrqy9m5EWMJIwsa5vdO-220" vertex="1">
          <mxGeometry y="132" width="200" height="26" as="geometry" />
        </mxCell>
        <mxCell id="FPrqy9m5EWMJIwsa5vdO-226" value="-Â glucose:Â Boolean" style="text;align=left;verticalAlign=top;spacingLeft=4;spacingRight=4;overflow=hidden;rotatable=0;points=[[0,0.5],[1,0.5]];portConstraint=eastwest;" parent="FPrqy9m5EWMJIwsa5vdO-220" vertex="1">
          <mxGeometry y="158" width="200" height="26" as="geometry" />
        </mxCell>
        <mxCell id="FPrqy9m5EWMJIwsa5vdO-227" value="-Â ketones:Â Boolean" style="text;align=left;verticalAlign=top;spacingLeft=4;spacingRight=4;overflow=hidden;rotatable=0;points=[[0,0.5],[1,0.5]];portConstraint=eastwest;" parent="FPrqy9m5EWMJIwsa5vdO-220" vertex="1">
          <mxGeometry y="184" width="200" height="26" as="geometry" />
        </mxCell>
        <mxCell id="FPrqy9m5EWMJIwsa5vdO-228" value="-Â bilirubin:Â Boolean" style="text;align=left;verticalAlign=top;spacingLeft=4;spacingRight=4;overflow=hidden;rotatable=0;points=[[0,0.5],[1,0.5]];portConstraint=eastwest;" parent="FPrqy9m5EWMJIwsa5vdO-220" vertex="1">
          <mxGeometry y="210" width="200" height="26" as="geometry" />
        </mxCell>
        <mxCell id="FPrqy9m5EWMJIwsa5vdO-229" value="-Â nitrites:Â Boolean&#xa;" style="text;align=left;verticalAlign=top;spacingLeft=4;spacingRight=4;overflow=hidden;rotatable=0;points=[[0,0.5],[1,0.5]];portConstraint=eastwest;" parent="FPrqy9m5EWMJIwsa5vdO-220" vertex="1">
          <mxGeometry y="236" width="200" height="26" as="geometry" />
        </mxCell>
        <mxCell id="FPrqy9m5EWMJIwsa5vdO-230" value="-Â leukocytes:Â Integer&#xa;" style="text;align=left;verticalAlign=top;spacingLeft=4;spacingRight=4;overflow=hidden;rotatable=0;points=[[0,0.5],[1,0.5]];portConstraint=eastwest;" parent="FPrqy9m5EWMJIwsa5vdO-220" vertex="1">
          <mxGeometry y="262" width="200" height="26" as="geometry" />
        </mxCell>
        <mxCell id="FPrqy9m5EWMJIwsa5vdO-231" value="-Â erythrocytes:Â Integer&#xa;" style="text;align=left;verticalAlign=top;spacingLeft=4;spacingRight=4;overflow=hidden;rotatable=0;points=[[0,0.5],[1,0.5]];portConstraint=eastwest;" parent="FPrqy9m5EWMJIwsa5vdO-220" vertex="1">
          <mxGeometry y="288" width="200" height="26" as="geometry" />
        </mxCell>
        <mxCell id="FPrqy9m5EWMJIwsa5vdO-232" value="-Â bacteria:Â Boolean&#xa;" style="text;align=left;verticalAlign=top;spacingLeft=4;spacingRight=4;overflow=hidden;rotatable=0;points=[[0,0.5],[1,0.5]];portConstraint=eastwest;" parent="FPrqy9m5EWMJIwsa5vdO-220" vertex="1">
          <mxGeometry y="314" width="200" height="26" as="geometry" />
        </mxCell>
        <mxCell id="FPrqy9m5EWMJIwsa5vdO-233" value="-Â crystals:Â String" style="text;align=left;verticalAlign=top;spacingLeft=4;spacingRight=4;overflow=hidden;rotatable=0;points=[[0,0.5],[1,0.5]];portConstraint=eastwest;" parent="FPrqy9m5EWMJIwsa5vdO-220" vertex="1">
          <mxGeometry y="340" width="200" height="26" as="geometry" />
        </mxCell>
        <mxCell id="FPrqy9m5EWMJIwsa5vdO-234" value="" style="line;html=1;strokeWidth=1;align=left;verticalAlign=middle;spacingTop=-1;spacingLeft=3;spacingRight=3;rotatable=0;labelPosition=right;points=[];portConstraint=eastwest;" parent="FPrqy9m5EWMJIwsa5vdO-220" vertex="1">
          <mxGeometry y="366" width="200" height="16" as="geometry" />
        </mxCell>
        <mxCell id="FPrqy9m5EWMJIwsa5vdO-235" value="..." style="text;align=left;verticalAlign=top;spacingLeft=4;spacingRight=4;overflow=hidden;rotatable=0;points=[[0,0.5],[1,0.5]];portConstraint=eastwest;" parent="FPrqy9m5EWMJIwsa5vdO-220" vertex="1">
          <mxGeometry y="382" width="200" height="20" as="geometry" />
        </mxCell>
        <mxCell id="FPrqy9m5EWMJIwsa5vdO-256" style="edgeStyle=orthogonalEdgeStyle;rounded=0;orthogonalLoop=1;jettySize=auto;html=1;exitX=0.5;exitY=0;exitDx=0;exitDy=0;endArrow=block;endFill=0;" parent="WIyWlLk6GJQsqaUBKTNV-1" source="FPrqy9m5EWMJIwsa5vdO-220" edge="1">
          <mxGeometry relative="1" as="geometry">
            <mxPoint x="-410" y="740" as="targetPoint" />
          </mxGeometry>
        </mxCell>
        <mxCell id="7z45aVooxAqQ6ZpwQJSf-8" style="edgeStyle=orthogonalEdgeStyle;rounded=0;orthogonalLoop=1;jettySize=auto;html=1;endArrow=open;endFill=0;" edge="1" parent="WIyWlLk6GJQsqaUBKTNV-1" source="zkfFHV4jXpPFQw0GAbJ--2">
          <mxGeometry relative="1" as="geometry">
            <mxPoint x="-599" y="90" as="targetPoint" />
          </mxGeometry>
        </mxCell>
        <mxCell id="7z45aVooxAqQ6ZpwQJSf-9" style="edgeStyle=orthogonalEdgeStyle;rounded=0;orthogonalLoop=1;jettySize=auto;html=1;endArrow=open;endFill=0;exitX=-0.011;exitY=0.877;exitDx=0;exitDy=0;exitPerimeter=0;" edge="1" parent="WIyWlLk6GJQsqaUBKTNV-1" source="zkfFHV4jXpPFQw0GAbJ--5">
          <mxGeometry relative="1" as="geometry">
            <mxPoint x="-660" y="210" as="targetPoint" />
            <mxPoint x="-410" y="180" as="sourcePoint" />
          </mxGeometry>
        </mxCell>
        <mxCell id="7z45aVooxAqQ6ZpwQJSf-12" style="edgeStyle=orthogonalEdgeStyle;rounded=0;orthogonalLoop=1;jettySize=auto;html=1;endArrow=open;endFill=0;entryX=0.5;entryY=0;entryDx=0;entryDy=0;exitX=0;exitY=0.5;exitDx=0;exitDy=0;" edge="1" parent="WIyWlLk6GJQsqaUBKTNV-1" target="FPrqy9m5EWMJIwsa5vdO-119">
          <mxGeometry relative="1" as="geometry">
            <mxPoint x="-859" y="600" as="targetPoint" />
            <mxPoint x="-503" y="468" as="sourcePoint" />
            <Array as="points">
              <mxPoint x="-510" y="468" />
              <mxPoint x="-510" y="510" />
              <mxPoint x="-655" y="510" />
            </Array>
          </mxGeometry>
        </mxCell>
        <mxCell id="7z45aVooxAqQ6ZpwQJSf-16" value="" style="whiteSpace=wrap;html=1;aspect=fixed;" vertex="1" parent="WIyWlLk6GJQsqaUBKTNV-1">
          <mxGeometry x="-790" y="920" width="230" height="230" as="geometry" />
        </mxCell>
        <mxCell id="7z45aVooxAqQ6ZpwQJSf-18" style="edgeStyle=orthogonalEdgeStyle;rounded=0;orthogonalLoop=1;jettySize=auto;html=1;exitX=0.25;exitY=0;exitDx=0;exitDy=0;entryX=0;entryY=1;entryDx=0;entryDy=0;" edge="1" parent="WIyWlLk6GJQsqaUBKTNV-1" source="FPrqy9m5EWMJIwsa5vdO-65" target="FPrqy9m5EWMJIwsa5vdO-217">
          <mxGeometry relative="1" as="geometry">
            <mxPoint x="-319.4000000000001" y="453.8040000000001" as="targetPoint" />
            <Array as="points">
              <mxPoint x="-130" y="479" />
              <mxPoint x="-280" y="479" />
              <mxPoint x="-280" y="440" />
            </Array>
          </mxGeometry>
        </mxCell>
        <mxCell id="7z45aVooxAqQ6ZpwQJSf-22" style="edgeStyle=orthogonalEdgeStyle;rounded=0;orthogonalLoop=1;jettySize=auto;html=1;exitX=0;exitY=0.5;exitDx=0;exitDy=0;entryX=0.938;entryY=1;entryDx=0;entryDy=0;entryPerimeter=0;" edge="1" parent="WIyWlLk6GJQsqaUBKTNV-1" source="FPrqy9m5EWMJIwsa5vdO-181" target="FPrqy9m5EWMJIwsa5vdO-64">
          <mxGeometry relative="1" as="geometry" />
        </mxCell>
        <mxCell id="7z45aVooxAqQ6ZpwQJSf-23" value="1" style="text;html=1;align=center;verticalAlign=middle;whiteSpace=wrap;rounded=0;" vertex="1" parent="WIyWlLk6GJQsqaUBKTNV-1">
          <mxGeometry x="-580" y="490" width="25" height="14" as="geometry" />
        </mxCell>
        <mxCell id="7z45aVooxAqQ6ZpwQJSf-24" value="0...*" style="text;html=1;align=center;verticalAlign=middle;whiteSpace=wrap;rounded=0;" vertex="1" parent="WIyWlLk6GJQsqaUBKTNV-1">
          <mxGeometry x="-570" y="560.5" width="30" height="30" as="geometry" />
        </mxCell>
        <mxCell id="7z45aVooxAqQ6ZpwQJSf-26" style="edgeStyle=orthogonalEdgeStyle;rounded=0;orthogonalLoop=1;jettySize=auto;html=1;exitX=1;exitY=0.5;exitDx=0;exitDy=0;entryX=-0.004;entryY=0.8;entryDx=0;entryDy=0;entryPerimeter=0;" edge="1" parent="WIyWlLk6GJQsqaUBKTNV-1" source="FPrqy9m5EWMJIwsa5vdO-181" target="FPrqy9m5EWMJIwsa5vdO-67">
          <mxGeometry relative="1" as="geometry" />
        </mxCell>
      </root>
    </mxGraphModel>
  </diagram>
</mxfile>
